# xmcd CD database file
#
# Track frame offsets:
#	150
#	33865
#	53342
#	100735
#	138050
#	184997
#	223265
#	259515
#
# Disc length: 3683 seconds
#
# Revision: 1
# Processed by: cddbd v1.5.1PL0 Copyright (c) Steve Scherf et al.
# Submitted via: CDex 1.51
#
DISCID=640e6108
DTITLE=Denis DiBlasio - Reflections of Childhood
DYEAR=1996
DGENRE=Jazz
TTITLE0=Down The Hill
TTITLE1=Halloween
TTITLE2=Wacky Logic
TTITLE3=Tell Me A Story (Vocal)
TTITLE4=Imaginary Friends
TTITLE5=First Friends
TTITLE6=Sugar Buzz
TTITLE7=Tell Me A Story (instrumental)
EXTD=YEAR: 1996
EXTT0=
EXTT1=
EXTT2=
EXTT3=
EXTT4=
EXTT5=
EXTT6=
EXTT7=
PLAYORDER=
